<svg width="25" height="24" viewBox="0 0 25 24" fill="none" xmlns="http://www.w3.org/2000/svg">
<path d="M17.5833 19.4934V3.375C17.5824 3.0769 17.4636 2.79125 17.2529 2.58046C17.0421 2.36967 16.7564 2.25087 16.4583 2.25H3.70831C3.41021 2.25087 3.12457 2.36967 2.91377 2.58046C2.70298 2.79125 2.58418 3.0769 2.58331 3.375V19.875C2.5848 20.3718 2.78282 20.8479 3.13413 21.1992C3.48544 21.5505 3.96149 21.7485 4.45831 21.75H19.8333" stroke="#150000" stroke-width="1.5" stroke-linejoin="round"/>
<path d="M19.8333 21.75C19.2366 21.75 18.6643 21.5129 18.2423 21.091C17.8204 20.669 17.5833 20.0967 17.5833 19.5V6H20.9583C21.2567 6 21.5428 6.11853 21.7538 6.3295C21.9648 6.54048 22.0833 6.82663 22.0833 7.125V19.5C22.0833 20.0967 21.8463 20.669 21.4243 21.091C21.0023 21.5129 20.4301 21.75 19.8333 21.75Z" stroke="#150000" stroke-width="1.5" stroke-linejoin="round"/>
<path d="M11.5833 6H14.5833M11.5833 9H14.5833M5.58331 12H14.5833M5.58331 15H14.5833M5.58331 18H14.5833" stroke="#150000" stroke-width="1.5" stroke-linecap="round" stroke-linejoin="round"/>
<path d="M8.58331 9.75H5.58331C5.3844 9.75 5.19364 9.67098 5.05298 9.53033C4.91233 9.38968 4.83331 9.19891 4.83331 9V6C4.83331 5.80109 4.91233 5.61032 5.05298 5.46967C5.19364 5.32902 5.3844 5.25 5.58331 5.25H8.58331C8.78223 5.25 8.97299 5.32902 9.11364 5.46967C9.2543 5.61032 9.33331 5.80109 9.33331 6V9C9.33331 9.19891 9.2543 9.38968 9.11364 9.53033C8.97299 9.67098 8.78223 9.75 8.58331 9.75Z" fill="#150000"/>
</svg>
