<svg width="25" height="24" viewBox="0 0 25 24" fill="none" xmlns="http://www.w3.org/2000/svg">
<path d="M4.66663 7V21H18.6666V23H4.66663C3.56663 23 2.66663 22.1 2.66663 21V7H4.66663ZM20.6666 3C21.7666 3 22.6666 3.9 22.6666 5V17C22.6666 18.1 21.7666 19 20.6666 19H8.66663C7.56663 19 6.66663 18.1 6.66663 17V5C6.66663 3.9 7.56663 3 8.66663 3H11.8666C12.2666 1.8 13.3666 1 14.6666 1C15.9666 1 17.0666 1.8 17.4666 3H20.6666ZM14.6666 3C14.0666 3 13.6666 3.5 13.6666 4C13.6666 4.5 14.0666 5 14.6666 5C15.2666 5 15.6666 4.6 15.6666 4C15.6666 3.4 15.2666 3 14.6666 3ZM10.6666 7V5H8.66663V17H20.6666V5H18.6666V7M12.6666 15V9L17.6666 12" fill="#150000"/>
</svg>
